<svg xmlns="http://www.w3.org/2000/svg" viewBox="0 0 350 80"><path fill-rule="evenodd" fill="#000000" d="M98.38,79.83C97.54,79.64 95.92,78.83 95.02,78.15C92.35,76.13 91.17,72.75 91.81,68.92C92.24,66.38 93.97,64.06 96.35,62.83C97.70,62.14 98.85,61.87 100.54,61.88C101.17,61.88 102.07,61.96 102.54,62.06C103.61,62.29 105.03,63.06 105.93,63.92C106.53,64.48 106.62,64.64 106.62,65.03C106.62,65.37 106.54,65.55 106.30,65.74C105.77,66.15 105.40,66.07 104.37,65.29C103.01,64.26 102.32,63.98 100.97,63.90C99.36,63.81 98.35,64.02 97.21,64.70C95.01,66.01 93.88,68.10 93.88,70.88C93.87,73.06 94.44,74.56 95.79,75.96C97.19,77.42 98.79,78.07 100.81,77.98C101.80,77.93 102.07,77.87 102.90,77.48C103.42,77.23 104.06,76.83 104.33,76.59C104.95,76.03 105.27,75.88 105.75,75.88C106.29,75.88 106.80,76.39 106.70,76.85C106.57,77.40 105.04,78.74 103.81,79.37L102.73,79.92L100.90,79.96C99.72,79.98 98.82,79.94 98.38,79.83ZM67.33,79.65C67.22,79.52 67.12,79.27 67.12,79.10C67.12,78.79 67.80,76.94 68.44,75.50C68.61,75.12 68.88,74.45 69.05,74.00C69.61,72.51 70.33,70.69 70.49,70.39C70.58,70.23 70.78,69.72 70.94,69.27C71.10,68.81 71.55,67.68 71.94,66.75C72.32,65.82 72.78,64.67 72.96,64.19C73.35,63.13 73.54,62.82 74.03,62.48C74.49,62.15 75.51,62.12 76.08,62.41C76.55,62.66 76.73,62.93 77.18,64.06C78.28,66.84 79.04,68.72 79.50,69.81C79.91,70.81 80.50,72.29 81.00,73.56C81.72,75.40 82.15,76.47 82.50,77.25C82.85,78.05 83.12,78.91 83.12,79.22C83.12,79.30 83.01,79.49 82.88,79.62C82.57,79.93 81.68,79.96 81.28,79.68C80.96,79.46 80.44,78.48 80.00,77.27C79.53,75.97 79.64,76.00 75.10,76.00L71.26,76.00L70.82,76.38C70.58,76.59 70.30,77.02 70.18,77.35C69.67,78.76 69.27,79.48 68.89,79.68C68.37,79.95 67.59,79.93 67.33,79.65ZM120.79,79.57L120.44,79.27L120.38,72.04C120.34,68.07 120.26,64.74 120.20,64.64C119.95,64.25 119.27,64.12 117.50,64.12C115.63,64.12 115.31,64.05 115.12,63.56C114.98,63.18 115.19,62.54 115.50,62.37C115.64,62.30 118.04,62.25 121.67,62.25L127.61,62.25L127.87,62.58C128.20,63.01 128.20,63.55 127.85,63.87C127.60,64.10 127.41,64.13 125.70,64.14C123.54,64.15 123.30,64.20 122.97,64.64C122.74,64.95 122.73,65.23 122.74,71.64C122.74,75.31 122.69,78.56 122.63,78.87C122.57,79.19 122.41,79.52 122.25,79.65C121.85,79.97 121.21,79.94 120.79,79.57ZM138.54,79.79C138.40,79.76 138.17,79.62 138.04,79.48C137.82,79.24 137.81,78.81 137.78,71.39C137.76,67.09 137.77,63.38 137.81,63.16C137.91,62.62 138.32,62.25 138.82,62.25C139.36,62.25 139.74,62.58 139.88,63.19C140.03,63.83 140.03,78.28 139.88,78.92C139.82,79.19 139.69,79.48 139.60,79.56C139.40,79.75 138.91,79.85 138.54,79.79ZM155.80,79.64C155.50,79.46 155.31,79.14 154.95,78.23C154.69,77.59 154.26,76.51 153.99,75.84C153.72,75.17 153.29,74.08 153.02,73.41C152.75,72.74 152.35,71.74 152.14,71.19C151.92,70.64 151.57,69.78 151.37,69.28C150.50,67.15 149.44,64.54 149.18,63.88C148.78,62.85 149.07,62.25 149.96,62.25C150.86,62.25 151.33,62.85 152.12,64.98C153.05,67.50 153.47,68.59 153.61,68.84C153.69,68.99 153.91,69.55 154.11,70.09C154.31,70.62 154.71,71.68 155.00,72.44C155.29,73.19 155.69,74.26 155.89,74.81C156.22,75.71 156.59,76.25 156.88,76.25C157.22,76.25 157.68,75.58 158.08,74.50C158.32,73.85 158.68,72.89 158.88,72.38C159.07,71.86 159.35,71.16 159.50,70.81C159.76,70.23 159.94,69.75 160.86,67.28C161.06,66.75 161.36,66.00 161.53,65.62C161.70,65.25 161.96,64.55 162.12,64.08C162.30,63.52 162.56,63.07 162.87,62.74C163.28,62.31 163.41,62.25 163.90,62.25C164.90,62.25 165.14,62.92 164.58,64.15C164.41,64.52 164.10,65.26 163.88,65.81C163.48,66.80 162.98,68.06 162.00,70.50C161.72,71.19 161.26,72.33 160.98,73.03C158.43,79.43 158.54,79.17 158.17,79.52C157.74,79.92 156.36,80.00 155.80,79.64ZM174.61,79.74C174.43,79.67 174.22,79.47 174.14,79.30C173.96,78.90 173.94,63.30 174.12,62.83C174.18,62.66 174.35,62.46 174.48,62.39C174.63,62.31 176.56,62.25 179.68,62.24L184.65,62.23L184.95,62.51C185.55,63.07 185.18,64.12 184.38,64.13C184.21,64.13 182.45,64.14 180.47,64.16L176.88,64.19L176.53,64.53C176.19,64.88 176.19,64.91 176.15,66.66C176.10,68.70 176.19,69.19 176.67,69.55C177.00,69.80 177.15,69.80 180.43,69.77C184.01,69.73 184.76,69.81 185.00,70.25C185.21,70.65 185.14,71.12 184.82,71.44L184.51,71.75L180.91,71.76C177.04,71.76 176.56,71.83 176.29,72.38C176.09,72.76 176.07,76.22 176.26,76.90C176.49,77.75 176.51,77.75 180.57,77.75C184.32,77.75 184.89,77.81 185.13,78.25C185.27,78.51 185.29,79.01 185.17,79.31C184.97,79.84 184.63,79.88 179.66,79.87C176.99,79.86 174.80,79.80 174.61,79.74ZM199.03,79.68C198.62,79.39 198.39,78.87 197.93,77.19C197.02,73.87 196.03,70.39 195.43,68.39C195.19,67.61 195.00,66.89 195.00,66.80C195.00,66.70 194.81,66.02 194.57,65.28C194.02,63.55 193.94,63.10 194.13,62.73C194.35,62.32 194.49,62.25 195.07,62.25C195.98,62.25 196.30,62.81 197.02,65.60C197.29,66.68 197.74,68.41 198.01,69.44C198.29,70.47 198.69,72.04 198.92,72.94C199.38,74.74 199.56,75.12 199.95,75.12C200.40,75.12 200.61,74.72 201.06,72.99C201.30,72.07 201.72,70.50 202.00,69.50C202.27,68.50 202.67,67.04 202.88,66.25C203.71,63.11 204.14,62.25 204.88,62.25C205.55,62.25 205.83,62.64 206.36,64.35C206.63,65.22 207.01,66.50 207.19,67.19C208.03,70.28 208.54,72.17 208.89,73.50C209.29,75.04 209.45,75.32 209.85,75.19C210.22,75.08 210.56,74.28 211.00,72.50C211.21,71.64 211.63,69.98 211.94,68.81C212.25,67.64 212.69,65.96 212.92,65.06C213.53,62.68 213.82,62.25 214.82,62.25C215.81,62.25 215.99,62.95 215.44,64.62C215.27,65.14 214.98,66.10 214.79,66.75C214.61,67.40 214.25,68.70 213.99,69.62C213.73,70.55 213.29,72.15 213.01,73.17C212.73,74.19 212.47,75.07 212.44,75.13C212.40,75.18 212.18,75.96 211.94,76.85C211.24,79.48 210.97,79.88 209.88,79.88C209.15,79.88 208.69,79.43 208.38,78.40C207.98,77.08 207.10,73.86 206.08,69.96C205.57,68.04 205.37,67.58 204.98,67.36C204.56,67.14 204.34,67.52 203.89,69.27C203.68,70.12 203.28,71.60 203.02,72.56C202.75,73.53 202.31,75.16 202.03,76.19C201.39,78.56 201.05,79.45 200.71,79.69C200.36,79.93 199.38,79.93 199.03,79.68ZM225.91,79.79C225.76,79.76 225.52,79.59 225.38,79.41C225.13,79.10 225.12,78.93 225.12,71.10C225.12,62.68 225.13,62.54 225.68,62.33C225.79,62.29 228.05,62.25 230.72,62.24C235.96,62.23 236.11,62.25 236.38,62.88C236.56,63.32 236.44,63.70 236.06,63.95C235.80,64.12 235.25,64.15 232.25,64.13C230.08,64.12 228.56,64.17 228.25,64.25C227.41,64.48 227.31,64.76 227.31,66.87C227.31,68.95 227.38,69.29 227.83,69.59C228.12,69.78 228.52,69.80 231.56,69.77C235.14,69.73 235.89,69.81 236.12,70.25C236.36,70.69 236.27,71.21 235.92,71.49C235.61,71.74 235.44,71.75 232.04,71.75C229.35,71.75 228.39,71.79 228.09,71.92C227.34,72.23 227.31,72.33 227.31,74.61C227.31,76.87 227.42,77.37 227.95,77.61C228.16,77.70 229.44,77.75 231.82,77.75C234.61,77.75 235.47,77.79 235.81,77.93C236.54,78.23 236.70,78.87 236.20,79.46L235.90,79.81L231.04,79.83C228.37,79.84 226.06,79.82 225.91,79.79ZM245.28,79.68C245.09,79.55 245.00,79.36 245.01,79.09C245.01,78.69 245.07,78.50 245.68,77.00C245.86,76.55 246.24,75.62 246.52,74.94C246.80,74.25 247.18,73.29 247.38,72.81C247.58,72.33 247.91,71.49 248.13,70.94C248.35,70.39 248.75,69.38 249.03,68.69C249.85,66.63 250.46,65.12 250.87,64.06C251.34,62.88 251.77,62.40 252.49,62.24C253.59,61.99 254.48,62.57 254.94,63.83C255.06,64.16 255.32,64.80 255.51,65.25C255.70,65.70 256.04,66.51 256.26,67.06C256.48,67.61 256.81,68.46 257.01,68.94C257.20,69.42 257.58,70.38 257.86,71.06C258.34,72.27 258.85,73.56 259.87,76.09C260.14,76.76 260.50,77.65 260.67,78.06C260.85,78.47 261.00,78.94 261.00,79.09C261.00,79.57 260.58,79.88 259.92,79.88C259.42,79.88 259.29,79.82 258.93,79.44C258.70,79.20 258.40,78.68 258.26,78.28C257.79,77.00 257.59,76.62 257.22,76.30L256.86,76.00L253.05,76.00C248.84,76.00 248.69,76.02 248.30,76.77C248.19,76.99 247.99,77.48 247.86,77.85C247.52,78.83 247.03,79.62 246.67,79.76C246.21,79.93 245.59,79.90 245.28,79.68ZM270.48,79.64L270.19,79.40L270.15,71.42C270.12,66.14 270.16,63.29 270.24,62.99C270.32,62.71 270.49,62.49 270.69,62.40C270.91,62.30 272.12,62.25 274.55,62.25C278.32,62.25 278.75,62.30 280.00,62.94C280.83,63.36 281.90,64.54 282.26,65.44C282.52,66.07 282.56,66.40 282.56,67.56C282.56,68.78 282.52,69.03 282.21,69.75C281.77,70.78 280.93,71.65 279.91,72.14C279.08,72.54 278.75,72.88 278.75,73.33C278.75,73.48 279.46,74.66 280.32,75.95C282.10,78.61 282.25,78.87 282.25,79.30C282.25,79.73 281.85,79.92 281.08,79.84C280.32,79.77 280.24,79.68 278.88,77.57C276.80,74.34 276.17,73.45 275.83,73.20C275.53,72.98 275.30,72.94 274.25,72.94C273.13,72.94 272.99,72.96 272.71,73.23L272.40,73.52L272.35,76.40L272.31,79.27L271.96,79.57C271.53,79.94 270.89,79.97 270.48,79.64ZM77.94,73.82C78.31,73.66 78.37,73.58 78.37,73.23C78.37,73.00 78.17,72.31 77.92,71.69C77.35,70.25 76.55,68.16 76.17,67.12C75.76,66.01 75.62,65.77 75.36,65.68C74.82,65.51 74.50,65.93 73.88,67.59C73.46,68.75 72.80,70.44 72.26,71.79C71.78,72.98 71.78,73.60 72.25,73.84C72.72,74.08 77.36,74.06 77.94,73.82ZM255.81,73.85C256.38,73.59 256.34,72.90 255.67,71.39C255.38,70.74 255.03,69.83 254.10,67.31C253.66,66.11 253.48,65.81 253.13,65.71C252.70,65.60 252.29,66.10 251.88,67.22C251.08,69.40 250.77,70.21 250.45,70.92C250.27,71.32 250.01,72.02 249.88,72.46C249.60,73.35 249.67,73.67 250.16,73.87C250.59,74.05 255.43,74.03 255.81,73.85ZM278.03,70.75C278.28,70.67 278.78,70.39 279.13,70.11C280.00,69.42 280.31,68.74 280.31,67.50C280.31,66.69 280.26,66.47 279.94,65.89C279.43,64.98 278.49,64.40 277.29,64.24C276.07,64.09 273.64,64.11 273.13,64.29C272.43,64.53 272.38,64.76 272.38,67.63C272.37,70.31 272.40,70.44 272.94,70.73C273.26,70.91 277.40,70.92 278.03,70.75ZM16.32,50.24C13.08,50.02 10.38,49.39 7.76,48.25C5.14,47.10 2.19,45.02 0.71,43.26C0.18,42.63 0.26,42.30 1.22,41.10C1.68,40.52 2.29,39.76 2.56,39.41C3.47,38.25 3.71,38.26 5.14,39.57C8.23,42.38 11.25,43.88 15.44,44.71C16.70,44.96 20.95,44.99 22.10,44.77C24.50,44.29 26.34,43.46 27.68,42.24C28.56,41.43 29.66,39.77 29.96,38.80C30.24,37.87 30.25,35.76 29.97,34.72C29.42,32.70 27.54,30.88 24.75,29.67C23.15,28.97 18.72,27.61 16.06,26.99C15.51,26.86 14.57,26.59 13.96,26.38C13.35,26.17 12.80,26.00 12.74,26.00C12.51,26.00 9.69,24.84 8.69,24.34C5.84,22.91 3.74,20.92 2.62,18.60C1.93,17.15 1.71,16.05 1.70,13.94C1.70,11.63 1.96,10.21 2.69,8.59C4.43,4.74 7.69,2.23 12.93,0.71L14.69,0.20L18.38,0.19L22.06,0.19L24.00,0.66C27.93,1.62 30.64,2.88 33.25,4.94C34.83,6.20 35.23,6.84 34.86,7.53C34.62,7.98 32.38,10.61 32.13,10.75C31.68,10.99 31.39,10.87 30.40,10.01C26.89,6.98 23.01,5.61 17.94,5.59C14.64,5.58 12.29,6.30 10.36,7.91C9.45,8.67 8.35,10.19 8.10,11.04C7.89,11.74 7.90,14.17 8.11,14.81C8.90,17.17 11.54,19.00 15.79,20.13C18.75,20.91 21.94,21.88 24.03,22.64C24.76,22.91 25.42,23.13 25.49,23.13C25.56,23.13 25.94,23.27 26.34,23.45C26.74,23.63 27.34,23.87 27.69,24.00C28.70,24.35 30.46,25.22 31.16,25.71C32.00,26.30 33.49,27.74 34.20,28.65C35.03,29.72 35.84,31.49 36.15,32.94C36.54,34.74 36.54,37.32 36.14,39.19C35.34,43.01 32.61,46.49 29.00,48.31C27.62,49.00 25.37,49.72 23.88,49.94C22.70,50.11 18.92,50.39 18.19,50.36C17.98,50.35 17.14,50.29 16.32,50.24ZM85.38,50.30C83.86,50.20 81.77,49.97 81.00,49.82C78.88,49.40 75.85,48.30 74.00,47.28C72.04,46.19 70.67,45.16 68.83,43.38C65.84,40.48 64.02,37.54 62.76,33.56C61.92,30.92 61.59,28.54 61.60,25.12C61.61,18.49 63.37,13.32 67.14,8.81C70.84,4.39 75.71,1.60 82.00,0.30C83.19,0.05 87.28,-0.06 89.13,0.11C91.66,0.33 95.27,1.52 97.59,2.88C99.36,3.93 100.46,4.81 102.19,6.57C104.02,8.42 104.51,9.16 104.28,9.68C104.03,10.23 101.02,12.00 100.18,12.10L99.62,12.16L98.47,10.94C94.98,7.25 91.16,5.51 86.53,5.50C82.46,5.50 79.02,6.51 76.00,8.61C73.38,10.43 71.06,13.15 69.72,16.00C69.11,17.30 68.35,19.62 68.13,20.84C67.77,22.84 67.77,27.53 68.13,29.56C68.34,30.75 69.21,33.36 69.76,34.48C72.66,40.41 78.25,44.30 84.69,44.88C87.10,45.10 88.93,44.91 91.22,44.20C94.23,43.27 96.89,41.45 99.14,38.78C99.50,38.36 99.67,38.25 100.00,38.25C100.54,38.25 104.10,40.19 104.29,40.59C104.55,41.17 104.21,41.74 102.68,43.35C98.24,48.01 93.78,50.06 87.56,50.29C86.74,50.32 85.75,50.32 85.38,50.30ZM147.87,50.24C144.52,50.02 141.86,49.37 139.55,48.21C135.86,46.36 133.26,43.47 131.64,39.44C131.10,38.07 130.45,35.39 130.25,33.66C130.07,32.04 130.08,1.86 130.27,1.45C130.49,0.97 130.99,0.87 133.26,0.88C135.30,0.88 135.37,0.88 135.71,1.18L136.06,1.48L136.13,17.40L136.19,33.31L136.66,35.09C137.48,38.25 138.87,40.55 140.99,42.24C143.55,44.29 147.30,45.25 151.43,44.90C157.78,44.36 161.98,40.63 163.21,34.41L163.56,32.69L163.62,17.10L163.69,1.51L163.97,1.22C164.25,0.95 164.33,0.94 166.64,0.94L169.02,0.94L169.32,1.29L169.62,1.64L169.62,16.88C169.62,32.97 169.63,32.94 169.04,36.19C168.65,38.39 167.49,41.16 166.14,43.12C165.36,44.26 163.12,46.46 162.02,47.17C159.20,48.99 156.09,49.96 152.42,50.18C149.89,50.33 149.40,50.34 147.87,50.24ZM199.91,49.36C199.06,49.11 199.12,51.16 199.12,25.23C199.12,7.95 199.16,1.68 199.27,1.45C199.48,0.97 199.98,0.88 202.20,0.88C204.38,0.88 204.76,0.95 204.99,1.46C205.09,1.68 205.12,7.55 205.12,22.45C205.12,45.01 205.08,43.74 205.82,43.93C206.00,43.97 210.68,44.01 216.21,44.00C222.65,44.00 226.44,44.04 226.74,44.12C227.61,44.36 227.68,44.54 227.72,46.61C227.76,48.26 227.74,48.48 227.51,48.84C227.35,49.10 227.10,49.28 226.79,49.37C226.18,49.54 200.50,49.53 199.91,49.36ZM255.56,49.33C255.35,49.23 255.11,49.01 255.03,48.82C254.91,48.56 254.88,43.29 254.88,25.05L254.88,1.61L255.25,1.23L255.62,0.86L266.34,0.91C277.94,0.97 277.40,0.93 279.81,1.71C283.00,2.73 285.27,4.49 287.18,7.44C288.45,9.40 289.09,11.37 289.37,14.17C289.70,17.38 288.84,21.15 287.23,23.53C285.31,26.37 283.08,28.15 280.07,29.20C277.74,30.03 277.73,30.03 269.28,30.09L261.62,30.15L261.28,30.44L260.94,30.73L260.88,39.71C260.83,46.61 260.78,48.75 260.65,48.96C260.57,49.11 260.29,49.30 260.03,49.37C259.34,49.56 256.02,49.53 255.56,49.33ZM329.29,49.30C329.07,49.19 328.85,49.01 328.79,48.90C328.73,48.78 328.66,39.32 328.62,27.88C328.56,5.69 328.59,6.70 328.00,6.41C327.90,6.36 324.71,6.28 320.92,6.25C314.15,6.19 314.01,6.18 313.67,5.92L313.31,5.66L313.28,3.60L313.24,1.55L313.57,1.24L313.90,0.94L331.62,0.90C348.94,0.87 349.35,0.88 349.64,1.11C349.93,1.35 349.94,1.39 349.94,3.55C349.94,5.49 349.91,5.77 349.71,5.96C349.51,6.17 348.99,6.19 342.40,6.25C338.50,6.28 335.24,6.36 335.14,6.42C334.61,6.76 334.63,6.31 334.62,27.90C334.62,44.07 334.59,48.50 334.47,48.75C334.16,49.36 333.62,49.50 331.56,49.50C330.12,49.49 329.60,49.45 329.29,49.30ZM274.59,24.75C278.11,24.38 280.91,22.54 282.31,19.69C282.98,18.32 283.16,17.40 283.16,15.44C283.15,13.56 282.92,12.56 282.17,11.10C281.11,9.05 279.23,7.48 277.06,6.81C275.30,6.27 274.96,6.25 268.13,6.25L261.54,6.25L261.24,6.57L260.94,6.90L260.90,15.23C260.87,21.10 260.90,23.70 261.00,24.04C261.24,24.87 261.21,24.86 267.69,24.87C270.85,24.87 273.95,24.82 274.59,24.75Z"/></svg>